<?xml version="1.0" encoding="UTF-8"?>
<svg xmlns="http://www.w3.org/2000/svg" width="200" height="197" viewBox="0 0 200 197" fill="none">
  <g clip-path="url(#clip0_135_1791)">
    <path d="M201.897 -2.38574H-1.58057V197.912H201.897V-2.38574Z" fill="#F8E03E"></path>
    <path d="M118.335 47.8184H50.8958C45.9432 47.8184 41.939 51.76 41.939 56.6352C41.939 61.5104 45.9432 65.4521 50.8958 65.4521H118.335C123.288 65.4521 127.292 61.5104 127.292 56.6352C127.397 51.76 123.288 47.8184 118.335 47.8184Z" fill="#5602C4"></path>
    <path d="M146.786 84.2266H79.3469C74.3944 84.2266 70.3901 88.1682 70.3901 93.0434C70.3901 97.9186 74.3944 101.86 79.3469 101.86H146.786C151.739 101.86 155.743 97.9186 155.743 93.0434C155.743 88.2719 151.739 84.2266 146.786 84.2266Z" fill="#5602C4"></path>
    <path d="M147.313 65.9708C152.551 65.9708 156.797 61.7911 156.797 56.6353C156.797 51.4794 152.551 47.2998 147.313 47.2998C142.076 47.2998 137.83 51.4794 137.83 56.6353C137.83 61.7911 142.076 65.9708 147.313 65.9708Z" fill="#5602C4"></path>
    <path d="M49.8421 102.587C55.0798 102.587 59.3257 98.4073 59.3257 93.2515C59.3257 88.0957 55.0798 83.916 49.8421 83.916C44.6044 83.916 40.3584 88.0957 40.3584 93.2515C40.3584 98.4073 44.6044 102.587 49.8421 102.587Z" fill="#5602C4"></path>
    <path d="M153.003 123.228C152.16 122.398 151.106 121.672 149.947 121.257C148.894 120.842 147.734 120.531 146.47 120.531H51.3171C46.3646 120.531 42.3604 124.473 42.3604 129.348C42.3604 134.223 46.3646 138.165 51.3171 138.165H124.974L115.49 147.397C112.013 150.82 112.013 156.421 115.49 159.844C118.967 163.267 124.657 163.267 128.135 159.844L153.003 135.572C156.586 132.252 156.586 126.651 153.003 123.228Z" fill="#5602C4"></path>
  </g>
  <defs>
    <clipPath id="clip0_135_1791">
      <rect width="200" height="196.875" rx="20" fill="white"></rect>
    </clipPath>
  </defs>
</svg>
