<svg width="258" height="270" viewBox="0 0 258 270" fill="none" xmlns="http://www.w3.org/2000/svg">
<path d="M155.444 48.6198C164.433 51.5815 172.799 55.8848 180.302 61.2887L184.981 58.5284C176.099 51.822 166.006 46.6065 155.084 43.2589C155.332 44.6964 155.461 46.1728 155.461 47.6784C155.461 47.9935 155.455 48.3073 155.444 48.6198Z" fill="#9ABBA1"/>
<path d="M191.272 63.7078C191.341 65.653 191.266 67.8603 190.921 70.2318C207.648 86.6379 218 109.384 218 134.5C218 184.433 177.083 225 126.5 225C75.9167 225 35 184.433 35 134.5C35 108.821 45.8219 85.6181 63.2149 69.1367C62.9368 66.6974 62.9366 64.4568 63.0677 62.5291C42.8032 80.0357 30 105.788 30 134.5C30 187.243 73.2045 230 126.5 230C179.795 230 223 187.243 223 134.5C223 106.426 210.759 81.1812 191.272 63.7078Z" fill="#9ABBA1"/>
<path d="M68.5817 58.1066L73.2763 60.8757C81.3647 55.1447 90.438 50.6848 100.199 47.7931C100.199 47.7548 100.199 47.7166 100.199 47.6784C100.199 45.8865 100.382 44.1359 100.731 42.443C88.9581 45.6634 78.0886 51.0362 68.5817 58.1066Z" fill="#9ABBA1"/>
<path d="M81.4339 65.6877L80.9806 65.4203L80.1772 64.112C81.2941 63.4262 82.4284 62.7642 83.5793 62.1268L84.5483 63.8763C83.4957 64.4593 82.4574 65.0633 81.4339 65.6877Z" fill="#9ABBA1"/>
<path d="M64.8254 76.3516C65.0355 76.9698 65.2671 77.5928 65.522 78.2193C64.808 78.9361 64.1075 79.6653 63.421 80.4066L61.9536 79.0476C62.8452 78.085 63.7596 77.1422 64.696 76.2202L64.8254 76.3516Z" fill="#9ABBA1"/>
<path d="M188.675 78.4176C188.96 77.7282 189.217 77.0428 189.449 76.3632C190.335 77.2397 191.201 78.1347 192.046 79.0476L190.579 80.4066C189.955 79.7336 189.321 79.0705 188.675 78.4176Z" fill="#9ABBA1"/>
<path d="M172.861 65.6777L172.703 65.7712C171.635 65.1171 170.551 64.4853 169.452 63.8764L170.421 62.1268C171.571 62.7642 172.706 63.4262 173.823 64.112L172.861 65.6777Z" fill="#9ABBA1"/>
<path d="M211.977 136.427L213.976 136.476C213.992 135.819 214 135.16 214 134.5C214 133.84 213.992 133.181 213.976 132.524L211.977 132.573C211.992 133.213 212 133.856 212 134.5C212 135.144 211.992 135.787 211.977 136.427Z" fill="#9ABBA1"/>
<path d="M211.791 128.736L213.785 128.591C213.69 127.276 213.562 125.969 213.404 124.671L211.418 124.914C211.573 126.179 211.697 127.454 211.791 128.736Z" fill="#9ABBA1"/>
<path d="M210.859 121.115L212.83 120.775C212.607 119.477 212.352 118.189 212.066 116.912L210.115 117.348C210.393 118.593 210.641 119.849 210.859 121.115Z" fill="#9ABBA1"/>
<path d="M209.186 113.622L211.114 113.09C210.764 111.821 210.384 110.564 209.974 109.32L208.075 109.945C208.474 111.159 208.845 112.384 209.186 113.622Z" fill="#9ABBA1"/>
<path d="M206.785 106.327L208.652 105.61C208.18 104.382 207.679 103.168 207.15 101.969L205.32 102.776C205.836 103.946 206.325 105.13 206.785 106.327Z" fill="#9ABBA1"/>
<path d="M203.685 99.2988L205.473 98.404C204.885 97.2286 204.269 96.0685 203.627 94.9245L201.883 95.9041C202.51 97.0204 203.111 98.1522 203.685 99.2988Z" fill="#9ABBA1"/>
<path d="M199.921 92.5991L201.616 91.5373C200.918 90.4243 200.195 89.3282 199.446 88.2497L197.803 89.3905C198.534 90.4431 199.24 91.5129 199.921 92.5991Z" fill="#9ABBA1"/>
<path d="M195.536 86.2848L197.124 85.0681C196.325 84.0263 195.502 83.0029 194.655 81.9988L193.126 83.2883C193.953 84.2687 194.757 85.2678 195.536 86.2848Z" fill="#9ABBA1"/>
<path d="M166.043 62.0872L166.933 60.296C165.76 59.7131 164.571 59.1552 163.367 58.6228L162.558 60.452C163.734 60.9723 164.896 61.5176 166.043 62.0872Z" fill="#9ABBA1"/>
<path d="M159.003 58.9737L159.73 57.1103C158.51 56.6345 157.276 56.1845 156.029 55.761L155.385 57.6548C156.604 58.0687 157.81 58.5086 159.003 58.9737Z" fill="#9ABBA1"/>
<path d="M98.6144 57.6548L97.9712 55.761C96.7243 56.1845 95.4903 56.6345 94.2702 57.1103L94.9968 58.9737C96.1894 58.5086 97.3955 58.0687 98.6144 57.6548Z" fill="#9ABBA1"/>
<path d="M91.4419 60.452L90.633 58.6228C89.4292 59.1552 88.2403 59.7131 87.0669 60.296L87.9567 62.0872C89.1034 61.5176 90.2654 60.9723 91.4419 60.452Z" fill="#9ABBA1"/>
<path d="M56.8761 85.0681C57.6747 84.0263 58.4978 83.0029 59.3448 81.9988L60.8736 83.2883C60.0466 84.2687 59.243 85.2678 58.4634 86.2848L56.8761 85.0681Z" fill="#9ABBA1"/>
<path d="M56.1965 89.3905L54.5538 88.2497C53.8048 89.3282 53.0814 90.4243 52.3841 91.5373L54.0791 92.5991C54.7594 91.5129 55.4655 90.4431 56.1965 89.3905Z" fill="#9ABBA1"/>
<path d="M52.1168 95.9041L50.3732 94.9244C49.7304 96.0685 49.1145 97.2286 48.5266 98.404L50.3152 99.2988C50.8888 98.1522 51.4896 97.0204 52.1168 95.9041Z" fill="#9ABBA1"/>
<path d="M48.6796 102.776L46.8498 101.969C46.3205 103.168 45.8197 104.382 45.348 105.61L47.2149 106.327C47.6749 105.13 48.1634 103.946 48.6796 102.776Z" fill="#9ABBA1"/>
<path d="M45.9252 109.945L44.0255 109.32C43.6159 110.564 43.2359 111.821 42.8862 113.09L44.8143 113.622C45.1553 112.384 45.5258 111.159 45.9252 109.945Z" fill="#9ABBA1"/>
<path d="M43.8853 117.348L41.9334 116.912C41.6481 118.189 41.3932 119.477 41.1695 120.775L43.1405 121.115C43.3586 119.849 43.6071 118.593 43.8853 117.348Z" fill="#9ABBA1"/>
<path d="M42.5815 124.914L40.5963 124.671C40.4377 125.969 40.3102 127.276 40.2144 128.591L42.2091 128.736C42.3025 127.454 42.4269 126.179 42.5815 124.914Z" fill="#9ABBA1"/>
<path d="M39.9999 134.5C39.9999 133.84 40.0079 133.181 40.0238 132.524L42.0232 132.573C42.0077 133.213 41.9999 133.856 41.9999 134.5C41.9999 135.144 42.0077 135.787 42.0232 136.427L40.0238 136.476C40.0079 135.819 39.9999 135.16 39.9999 134.5Z" fill="#9ABBA1"/>
<path d="M42.2091 140.264L40.2144 140.409C40.3102 141.724 40.4377 143.031 40.5963 144.329L42.5815 144.086C42.4269 142.821 42.3025 141.546 42.2091 140.264Z" fill="#9ABBA1"/>
<path d="M43.1405 147.885L41.1695 148.225C41.3932 149.523 41.6481 150.811 41.9334 152.088L43.8853 151.652C43.6071 150.407 43.3586 149.151 43.1405 147.885Z" fill="#9ABBA1"/>
<path d="M44.8143 155.378L42.8862 155.91C43.2359 157.179 43.6159 158.436 44.0255 159.68L45.9252 159.055C45.5258 157.841 45.1553 156.616 44.8143 155.378Z" fill="#9ABBA1"/>
<path d="M47.2149 162.673L45.348 163.39C45.8196 164.618 46.3205 165.832 46.8498 167.031L48.6796 166.224C48.1634 165.054 47.6749 163.87 47.2149 162.673Z" fill="#9ABBA1"/>
<path d="M50.3732 174.076C49.7303 172.931 49.1145 171.771 48.5266 170.596L50.3152 169.701C50.8888 170.848 51.4896 171.98 52.1168 173.096L50.3732 174.076Z" fill="#9ABBA1"/>
<path d="M54.0791 176.401L52.3841 177.463C53.0813 178.576 53.8048 179.672 54.5538 180.75L56.1965 179.609C55.4655 178.557 54.7594 177.487 54.0791 176.401Z" fill="#9ABBA1"/>
<path d="M58.4634 182.715L56.8761 183.932C57.6747 184.974 58.4978 185.997 59.3448 187.001L60.8736 185.712C60.0466 184.731 59.243 183.732 58.4634 182.715Z" fill="#9ABBA1"/>
<path d="M63.421 188.593L61.9536 189.952C62.8452 190.915 63.7596 191.858 64.6961 192.78L66.0993 191.355C65.1847 190.454 64.2916 189.533 63.421 188.593Z" fill="#9ABBA1"/>
<path d="M68.9019 193.99L67.5654 195.478C68.5412 196.355 69.538 197.21 70.555 198.043L71.8223 196.495C70.8288 195.682 69.855 194.846 68.9019 193.99Z" fill="#9ABBA1"/>
<path d="M74.854 198.866L73.6581 200.469C74.7091 201.253 75.7792 202.014 76.8679 202.752L77.99 201.096C76.9263 200.375 75.8807 199.632 74.854 198.866Z" fill="#9ABBA1"/>
<path d="M81.2238 203.184L80.1772 204.888C81.2941 205.574 82.4284 206.236 83.5793 206.873L84.5483 205.124C83.4236 204.501 82.3152 203.854 81.2238 203.184Z" fill="#9ABBA1"/>
<path d="M87.9567 206.913L87.0669 208.704C88.2403 209.287 89.4292 209.845 90.633 210.377L91.4419 208.548C90.2654 208.028 89.1034 207.482 87.9567 206.913Z" fill="#9ABBA1"/>
<path d="M94.9968 210.026L94.2702 211.89C95.4903 212.365 96.7242 212.815 97.9712 213.239L98.6144 211.345C97.3955 210.931 96.1894 210.491 94.9968 210.026Z" fill="#9ABBA1"/>
<path d="M102.287 212.502L101.729 214.423C102.986 214.788 104.255 215.128 105.535 215.439L106.009 213.496C104.757 213.191 103.516 212.86 102.287 212.502Z" fill="#9ABBA1"/>
<path d="M109.77 214.325L109.383 216.287C110.666 216.54 111.959 216.766 113.262 216.965L113.563 214.988C112.289 214.794 111.025 214.573 109.77 214.325Z" fill="#9ABBA1"/>
<path d="M117.381 215.484L117.166 217.473C118.466 217.613 119.774 217.726 121.09 217.81L121.218 215.814C119.931 215.732 118.652 215.621 117.381 215.484Z" fill="#9ABBA1"/>
<path d="M125.067 215.979L125.024 217.979C125.681 217.993 126.34 218 127 218C127.66 218 128.319 217.993 128.976 217.979L128.933 215.979C128.29 215.993 127.646 216 127 216C126.354 216 125.709 215.993 125.067 215.979Z" fill="#9ABBA1"/>
<path d="M132.782 215.814L132.91 217.81C134.226 217.726 135.534 217.613 136.833 217.473L136.619 215.484C135.348 215.621 134.069 215.732 132.782 215.814Z" fill="#9ABBA1"/>
<path d="M140.437 214.988L140.738 216.965C142.041 216.766 143.334 216.54 144.617 216.287L144.23 214.325C142.975 214.573 141.711 214.794 140.437 214.988Z" fill="#9ABBA1"/>
<path d="M147.991 213.496L148.464 215.439C149.745 215.128 151.014 214.788 152.271 214.423L151.712 212.502C150.484 212.86 149.243 213.191 147.991 213.496Z" fill="#9ABBA1"/>
<path d="M155.385 211.345L156.029 213.239C157.276 212.815 158.509 212.365 159.73 211.89L159.003 210.026C157.81 210.491 156.604 210.931 155.385 211.345Z" fill="#9ABBA1"/>
<path d="M162.558 208.548L163.367 210.377C164.571 209.845 165.76 209.287 166.933 208.704L166.043 206.913C164.896 207.482 163.734 208.028 162.558 208.548Z" fill="#9ABBA1"/>
<path d="M169.452 205.124L170.421 206.873C171.571 206.236 172.706 205.574 173.823 204.888L172.776 203.184C171.685 203.854 170.576 204.501 169.452 205.124Z" fill="#9ABBA1"/>
<path d="M176.01 201.096L177.132 202.752C178.221 202.014 179.291 201.253 180.342 200.469L179.146 198.866C178.119 199.632 177.073 200.375 176.01 201.096Z" fill="#9ABBA1"/>
<path d="M182.177 196.495L183.445 198.043C184.462 197.21 185.459 196.355 186.434 195.478L185.098 193.99C184.145 194.846 183.171 195.682 182.177 196.495Z" fill="#9ABBA1"/>
<path d="M192.046 189.952C191.155 190.915 190.24 191.858 189.304 192.78L187.901 191.355C188.815 190.454 189.708 189.533 190.579 188.593L192.046 189.952Z" fill="#9ABBA1"/>
<path d="M193.126 185.712L194.655 187.001C195.502 185.997 196.325 184.974 197.124 183.932L195.536 182.715C194.757 183.732 193.953 184.731 193.126 185.712Z" fill="#9ABBA1"/>
<path d="M197.803 179.609L199.446 180.75C200.195 179.672 200.918 178.576 201.616 177.463L199.921 176.401C199.24 177.487 198.534 178.557 197.803 179.609Z" fill="#9ABBA1"/>
<path d="M201.883 173.096L203.627 174.076C204.269 172.931 204.885 171.771 205.473 170.596L203.685 169.701C203.111 170.848 202.51 171.98 201.883 173.096Z" fill="#9ABBA1"/>
<path d="M205.32 166.224L207.15 167.031C207.679 165.832 208.18 164.618 208.652 163.39L206.785 162.673C206.325 163.87 205.836 165.054 205.32 166.224Z" fill="#9ABBA1"/>
<path d="M208.075 159.055L209.974 159.68C210.384 158.436 210.764 157.179 211.114 155.91L209.186 155.378C208.845 156.616 208.474 157.841 208.075 159.055Z" fill="#9ABBA1"/>
<path d="M210.115 151.652L212.066 152.088C212.352 150.811 212.607 149.523 212.83 148.225L210.859 147.885C210.641 149.151 210.393 150.407 210.115 151.652Z" fill="#9ABBA1"/>
<path d="M211.418 144.086L213.404 144.329C213.562 143.031 213.69 141.724 213.785 140.409L211.791 140.264C211.697 141.546 211.573 142.821 211.418 144.086Z" fill="#9ABBA1"/>
<path d="M134.982 73.4544C141.076 74.1543 146.882 75.6455 152.295 77.809L168.774 68.0884C163.519 65.0556 157.874 62.5777 151.929 60.7396C148.326 66.9238 142.243 71.581 134.982 73.4544Z" fill="#C9E1BE"/>
<path d="M186.807 82.2326C185.77 84.0542 184.512 85.8806 182.99 87.6798C181.165 89.8372 178.441 91.645 175.111 93.1591C185.658 104.177 192 118.768 192 134.5C192 167.807 163.572 196 127 196C90.428 196 61.9999 167.807 61.9999 134.5C61.9999 118.726 68.3761 104.099 78.9738 93.0706C75.7319 91.5747 73.0774 89.7953 71.2881 87.6798C69.7154 85.8205 68.4238 83.9321 67.3679 82.05C54.1007 95.8513 45.9999 114.27 45.9999 134.5C45.9999 177.302 82.2649 212 127 212C171.735 212 208 177.302 208 134.5C208 114.36 199.97 96.0135 186.807 82.2326Z" fill="#C9E1BE"/>
<path d="M85.3663 68.0073L101.871 77.7429C107.588 75.4758 113.74 73.9577 120.206 73.3283C112.99 71.3325 106.982 66.5746 103.489 60.3151C97.0755 62.1733 90.9985 64.7721 85.3663 68.0073Z" fill="#C9E1BE"/>
<path d="M116.832 72.1599C117.922 72.617 119.049 73.0082 120.206 73.3283C118.788 73.4663 117.385 73.6471 115.999 73.8691L116.832 72.1599Z" fill="#9ABBA1"/>
<path d="M110.363 68.3508C111.675 69.3861 113.088 70.3071 114.586 71.0981L112.963 74.4261C110.796 74.8749 108.673 75.4254 106.599 76.0718L110.363 68.3508Z" fill="#9ABBA1"/>
<path d="M104.873 62.5308C105.911 64.0228 107.1 65.408 108.42 66.6659L103.284 77.201C102.81 77.3765 102.339 77.5572 101.871 77.7429L98.4431 75.721L104.873 62.5308Z" fill="#9ABBA1"/>
<path d="M96.2964 74.4547L103.14 60.4171C100.871 61.0851 98.6455 61.8459 96.4669 62.6948L91.9763 71.9064L96.2964 74.4547Z" fill="#9ABBA1"/>
<path d="M89.8296 70.6401L92.9996 64.1376C90.4668 65.2599 88.0048 66.5037 85.6218 67.8612L85.5094 68.0918L89.8296 70.6401Z" fill="#9ABBA1"/>
<path d="M69.0566 84.7611C69.7287 85.7385 70.4704 86.7131 71.2881 87.6798C71.6717 88.1333 72.095 88.5713 72.5553 88.9945L46.4344 142.576C46.1472 139.921 45.9999 137.227 45.9999 134.5C45.9999 133.653 46.0141 132.81 46.0423 131.97L69.0566 84.7611Z" fill="#9ABBA1"/>
<path d="M67.3679 82.05C67.4116 82.1279 67.4557 82.2059 67.5003 82.2838L46.5766 125.204C48.6444 108.653 56.1639 93.705 67.3679 82.05Z" fill="#9ABBA1"/>
<path d="M74.5464 90.5799C75.8313 91.4751 77.2971 92.2932 78.9093 93.0408L78.8127 93.239C70.0906 102.383 64.2588 113.975 62.5331 126.633L48.8051 154.793C48.0836 152.242 47.4949 149.639 47.0464 146.99L74.5464 90.5799Z" fill="#9ABBA1"/>
<path d="M139.105 72.0417C137.783 72.6132 136.405 73.0872 134.982 73.4544C136.064 73.5786 137.136 73.7277 138.199 73.9011L139.105 72.0417Z" fill="#9ABBA1"/>
<path d="M142.818 70.0943L140.737 74.3647C142.422 74.7058 144.081 75.1084 145.712 75.5696L152.806 61.0163C152.515 60.9225 152.222 60.8303 151.929 60.7396C149.722 64.5267 146.586 67.7411 142.818 70.0943Z" fill="#9ABBA1"/>
<path d="M153.209 77.2697L152.295 77.809C150.928 77.2625 149.535 76.7589 148.12 76.3001L155.179 61.8186C156.761 62.3804 158.32 62.9881 159.854 63.64L153.209 77.2697Z" fill="#9ABBA1"/>
<path d="M164.897 70.3756L157.089 74.9812L162.127 64.647C163.646 65.3474 165.138 66.0917 166.602 66.8783L164.897 70.3756Z" fill="#9ABBA1"/>
<path d="M180.185 90.2553C178.729 91.3268 177.02 92.2912 175.111 93.1591C175.929 94.0138 176.722 94.89 177.488 95.7865L180.185 90.2553Z" fill="#9ABBA1"/>
<path d="M52.3429 164.616C51.4281 162.542 50.6049 160.423 49.8781 158.262L62.0108 133.374C62.0036 133.749 61.9999 134.124 61.9999 134.5C61.9999 137.515 62.233 140.489 62.6839 143.403L52.3429 164.616Z" fill="#9ABBA1"/>
<path d="M53.6949 167.512C54.6007 169.35 55.5798 171.149 56.6286 172.904L65.5656 154.572C64.7197 152.261 64.0159 149.892 63.4633 147.474L53.6949 167.512Z" fill="#9ABBA1"/>
<path d="M61.4671 180.059C60.3144 178.544 59.2177 176.987 58.18 175.392L66.8087 157.692C67.6437 159.627 68.5803 161.516 69.6125 163.351L61.4671 180.059Z" fill="#9ABBA1"/>
<path d="M63.1755 182.225C64.319 183.623 65.5117 184.982 66.7509 186.301L74.4014 170.607C73.2381 169.089 72.1468 167.52 71.1317 165.904L63.1755 182.225Z" fill="#9ABBA1"/>
<path d="M72.4156 191.761C71.1004 190.612 69.825 189.423 68.5914 188.195L76.1202 172.751C77.2696 174.122 78.4799 175.447 79.7477 176.721L72.4156 191.761Z" fill="#9ABBA1"/>
<path d="M74.3729 193.416C75.6867 194.491 77.0369 195.527 78.4215 196.521L85.5557 181.887C84.1978 180.819 82.8874 179.7 81.6277 178.534L74.3729 193.416Z" fill="#9ABBA1"/>
<path d="M84.7441 200.632C83.294 199.781 81.874 198.889 80.486 197.956L87.5759 183.412C88.9329 184.396 90.3329 185.33 91.7733 186.213L84.7441 200.632Z" fill="#9ABBA1"/>
<path d="M86.9104 201.857C88.3693 202.654 89.8565 203.409 91.3704 204.119L98.3741 189.753C96.8546 189.046 95.37 188.285 93.9227 187.473L86.9104 201.857Z" fill="#9ABBA1"/>
<path d="M98.2959 206.993C96.7185 206.421 95.1646 205.803 93.6361 205.141L100.648 190.758C102.183 191.402 103.751 191.992 105.349 192.525L98.2959 206.993Z" fill="#9ABBA1"/>
<path d="M100.661 207.811C102.26 208.336 103.881 208.816 105.524 209.247L112.703 194.519C111.024 194.165 109.371 193.749 107.747 193.275L100.661 207.811Z" fill="#9ABBA1"/>
<path d="M113.065 210.857C111.355 210.574 109.663 210.239 107.991 209.854L115.231 195.003C116.948 195.298 118.691 195.53 120.456 195.696L113.065 210.857Z" fill="#9ABBA1"/>
<path d="M115.64 211.244C117.389 211.479 119.156 211.66 120.939 211.786L128.644 195.981C128.098 195.994 127.55 196 127 196C125.697 196 124.405 195.964 123.124 195.894L115.64 211.244Z" fill="#9ABBA1"/>
<path d="M129.174 211.973C128.452 211.991 127.727 212 127 212C125.871 212 124.748 211.978 123.63 211.934L131.467 195.859C133.451 195.733 135.408 195.523 137.334 195.234L129.174 211.973Z" fill="#9ABBA1"/>
<path d="M131.995 211.855C133.957 211.741 135.9 211.56 137.822 211.314L146.677 193.149C144.615 193.766 142.505 194.289 140.353 194.712L131.995 211.855Z" fill="#9ABBA1"/>
<path d="M146.971 209.627C144.942 210.119 142.883 210.538 140.797 210.88L149.966 192.071C152.377 191.211 154.716 190.22 156.974 189.107L146.971 209.627Z" fill="#9ABBA1"/>
<path d="M150.142 208.791C152.396 208.149 154.608 207.416 156.774 206.596L169.059 181.397C166.45 183.501 163.659 185.415 160.71 187.113L150.142 208.791Z" fill="#9ABBA1"/>
<path d="M167.529 201.616C165.165 202.926 162.725 204.124 160.217 205.205L173.961 177.011C183.759 167.291 190.188 154.584 191.671 140.683L204.965 113.413C205.705 115.919 206.315 118.478 206.79 121.08L167.529 201.616Z" fill="#9ABBA1"/>
<path d="M171.41 199.323C174.421 197.431 177.292 195.353 180.005 193.104L207.99 135.698C207.997 135.299 208 134.9 208 134.5C208 131.422 207.812 128.386 207.448 125.401L171.41 199.323Z" fill="#9ABBA1"/>
<path d="M184.933 188.664C197.458 176.403 205.765 160.181 207.611 142.147L184.933 188.664Z" fill="#9ABBA1"/>
<path d="M203.868 109.995C203.125 107.862 202.288 105.77 201.362 103.724L191.161 124.649C191.705 127.814 191.991 131.052 192 134.34L203.868 109.995Z" fill="#9ABBA1"/>
<path d="M197.03 95.5302C198.088 97.2659 199.076 99.0444 199.993 100.862L190.335 120.674C189.755 118.302 189.03 115.978 188.167 113.711L197.03 95.5302Z" fill="#9ABBA1"/>
<path d="M195.466 93.069C194.42 91.4894 193.315 89.9486 192.156 88.4491L184.055 105.066C185.098 106.874 186.048 108.735 186.899 110.642L195.466 93.069Z" fill="#9ABBA1"/>
<path d="M186.842 82.2693C188.087 83.5745 189.286 84.9207 190.437 86.3053L182.519 102.547C181.493 100.951 180.392 99.4022 179.22 97.9039L186.842 82.2693Z" fill="#9ABBA1"/>
<path d="M88.7945 126.778L89.8532 131.46C90.4285 134.003 93.8948 134.384 95.0089 132.026C95.6566 130.656 97.2933 130.066 98.6854 130.667C100.95 131.644 104.298 132.987 106.763 133.543C116.582 135.758 127.139 135.354 127.139 135.354C127.139 135.354 137.697 135.758 147.515 133.543C149.98 132.987 153.328 131.644 155.593 130.667C156.985 130.066 158.622 130.656 159.269 132.026C160.383 134.384 163.85 134.003 164.425 131.46L165.484 126.778M127.139 191.075C159.567 191.075 185.855 165.693 185.855 134.383C185.855 103.073 159.567 77.6915 127.139 77.6915C94.7111 77.6915 68.423 103.073 68.423 134.383C68.423 165.693 94.7111 191.075 127.139 191.075ZM100.271 109.829C102.654 109.094 104.228 107.339 103.786 105.909C103.345 104.48 101.056 103.917 98.6733 104.653C96.2909 105.388 94.7173 107.143 95.1586 108.573C95.5999 110.002 97.889 110.565 100.271 109.829ZM151.172 105.909C150.731 107.339 152.305 109.094 154.687 109.829C157.07 110.565 159.359 110.002 159.8 108.573C160.241 107.143 158.668 105.388 156.285 104.653C153.903 103.917 151.614 104.48 151.172 105.909ZM155.461 47.6784C155.461 62.4124 143.09 74.3567 127.83 74.3567C112.57 74.3567 100.199 62.4124 100.199 47.6784C100.199 32.9443 112.57 21 127.83 21C143.09 21 155.461 32.9443 155.461 47.6784Z" stroke="#9ABBA1" stroke-width="3" stroke-linecap="round"/>
<path d="M154.461 47.6784C154.461 61.8273 142.571 73.3567 127.83 73.3567C113.089 73.3567 101.199 61.8273 101.199 47.6784C101.199 33.5294 113.089 22 127.83 22C142.571 22 154.461 33.5294 154.461 47.6784ZM66.8798 58.2636L106.462 81.6123C98.6349 84.4744 91.6154 88.925 85.8267 94.5579C79.654 92.689 74.7472 90.2209 72.0516 87.034C63.0955 76.4454 63.5194 64.8895 64.4518 59.266C64.6315 58.1825 65.7884 57.6198 66.8798 58.2636ZM182.227 87.034C179.499 90.2582 174.51 92.7459 168.239 94.6219C162.48 88.9999 155.497 84.5504 147.709 81.6753L187.398 58.2636C188.49 57.6198 189.647 58.1825 189.826 59.266C190.759 64.8895 191.183 76.4454 182.227 87.034Z" stroke="#9ABBA1" stroke-width="2"/>
<path d="M19.9001 70.5112C20.4237 69.641 21.0377 68.8479 21.7421 68.132C22.4565 67.3994 23.2461 66.769 24.111 66.2409C24.9591 65.7027 25.8857 65.3371 26.8909 65.1441C27.9061 64.9344 28.8806 65.0764 29.8145 65.57L38.8765 71.023C39.8201 71.7277 40.0317 72.6072 39.5112 73.6617C39.2292 74.1302 38.8319 74.4496 38.3192 74.6198C37.7998 74.7631 37.3058 74.6938 36.8372 74.4119L28.5534 69.4271C28.0145 69.1483 27.4669 69.0924 26.9107 69.2591C26.3478 69.3991 25.83 69.6346 25.3572 69.9656C24.8946 70.2798 24.467 70.6494 24.0746 71.0743C23.6922 71.4825 23.355 71.9292 23.063 72.4145C22.7709 72.8998 22.5291 73.4153 22.3375 73.9611C22.1559 74.4901 22.0296 75.0409 21.9585 75.6136C21.8975 76.1696 21.9319 76.7374 22.0618 77.317C22.185 77.8698 22.496 78.3191 22.9946 78.6647L31.2784 83.6496C32.2322 84.3375 32.4488 85.2086 31.9282 86.2631C31.6462 86.7317 31.2489 87.051 30.7362 87.2212C30.2168 87.3645 29.7228 87.2953 29.2543 87.0133L20.1923 81.5602C19.3188 80.9662 18.732 80.18 18.4318 79.2015C18.1316 78.223 18.0207 77.2331 18.099 76.2317C18.1606 75.2202 18.3427 74.2356 18.6454 73.278C18.9582 72.3037 19.3764 71.3814 19.9001 70.5112Z" fill="#9ABBA1"/>
<path d="M42.2702 66.19C41.8827 65.8041 41.6884 65.3487 41.6874 64.8239C41.6863 64.2715 41.8787 63.8015 42.2646 63.4141L46.234 59.4285L39.5499 52.7715L35.5805 56.757C35.1946 57.1445 34.7323 57.3319 34.1937 57.3192C33.6551 57.3341 33.192 57.1486 32.8046 56.7627C32.4171 56.3768 32.2228 55.9214 32.2217 55.3966C32.2206 54.8442 32.413 54.3742 32.7989 53.9867L43.508 43.2341C43.894 42.8466 44.3562 42.6454 44.8948 42.6305C45.4334 42.6432 45.8965 42.8426 46.284 43.2285C46.6715 43.6144 46.8658 44.0836 46.8669 44.636C46.8679 45.1608 46.6755 45.6169 46.2896 46.0044L42.3409 49.9692L49.025 56.6262L52.9737 52.6614C53.3596 52.2739 53.8218 52.0727 54.3604 52.0578C54.8991 52.0706 55.3621 52.2699 55.7496 52.6558C56.1371 53.0417 56.3314 53.5109 56.3325 54.0633C56.3336 54.5881 56.1412 55.0443 55.7553 55.4317L45.0461 66.1844C44.6602 66.5719 44.1979 66.7592 43.6593 66.7465C43.1207 66.7614 42.6577 66.5759 42.2702 66.19Z" fill="#9ABBA1"/>
<path d="M71.0629 45.4909C70.1948 46.0181 69.2742 46.4401 68.3012 46.7568C67.3448 47.0634 66.3661 47.2578 65.365 47.3402C64.3537 47.4059 63.3583 47.2907 62.3786 46.9944C61.3989 46.6982 60.6103 46.1146 60.0128 45.2435L59.146 43.8162C58.8621 43.3487 58.7959 42.8634 58.9473 42.3601C59.1052 41.8301 59.4179 41.4231 59.8853 41.1392C60.9377 40.6144 61.8097 40.8275 62.5015 41.7784L62.8968 42.4295C63.2445 42.9267 63.7001 43.2442 64.2636 43.3818C64.8336 43.4927 65.3965 43.5165 65.9522 43.4532C66.5245 43.3798 67.0749 43.2512 67.6031 43.0675C68.1481 42.8737 68.6626 42.6298 69.1468 42.3358C69.6309 42.0418 70.0762 41.7027 70.4828 41.3187C70.9061 40.9245 71.274 40.4955 71.5864 40.0316C71.9154 39.5575 72.1539 39.0471 72.3017 38.5003C72.4561 37.9267 72.3928 37.371 72.1119 36.8332L67.0935 28.5697C66.8097 28.1023 66.7434 27.6169 66.8948 27.1137C67.0528 26.5836 67.3655 26.1766 67.8329 25.8928C68.8852 25.3679 69.7656 25.5759 70.4741 26.5167L75.9639 35.5565C76.4612 36.4884 76.6071 37.4624 76.4015 38.4784C76.2126 39.4843 75.8559 40.4208 75.3313 41.2878C74.7965 42.1381 74.1643 42.9219 73.4345 43.6393C72.7215 44.3465 71.9309 44.9637 71.0629 45.4909Z" fill="#9ABBA1"/>
<path d="M85.1214 34.9655C84.885 34.4723 84.8539 33.9782 85.0281 33.4832C85.2115 32.9621 85.5498 32.5833 86.0429 32.347L91.1152 29.9155L87.0374 21.4087L81.9651 23.8402C81.4719 24.0766 80.9736 24.0989 80.4701 23.9071C79.9575 23.7413 79.583 23.4119 79.3466 22.9187C79.1102 22.4256 79.0791 21.9315 79.2533 21.4364C79.4367 20.9153 79.775 20.5366 80.2681 20.3002L93.9528 13.7402C94.4459 13.5038 94.9488 13.4685 95.4615 13.6343C95.965 13.8261 96.3349 14.1686 96.5713 14.6617C96.8077 15.1549 96.8342 15.662 96.6508 16.1831C96.4766 16.6781 96.1429 17.0439 95.6498 17.2803L90.6039 19.6991L94.6817 28.2058L99.7276 25.787C100.221 25.5506 100.724 25.5153 101.236 25.681C101.74 25.8729 102.11 26.2154 102.346 26.7085C102.583 27.2016 102.609 27.7088 102.426 28.2299C102.251 28.7249 101.918 29.0906 101.425 29.327L87.7399 35.887C87.2468 36.1234 86.7484 36.1457 86.245 35.9539C85.7323 35.7881 85.3578 35.4586 85.1214 34.9655Z" fill="#9ABBA1"/>
<path d="M154.941 16.6167C155.376 16.7555 155.773 16.9649 156.135 17.2446C156.509 17.5283 156.843 17.8743 157.136 18.2826C157.178 18.3644 157.226 18.4482 157.281 18.534C157.363 18.4919 157.451 18.4517 157.545 18.4135C158.021 18.2513 158.487 18.1612 158.944 18.1433C159.413 18.1294 159.859 18.1899 160.28 18.3248C160.714 18.4637 161.112 18.673 161.474 18.9527C161.848 19.2365 162.173 19.5867 162.45 20.0033C162.743 20.4116 162.955 20.9032 163.086 21.4781C163.229 22.057 163.193 22.6812 162.979 23.3509L161.711 27.3132C161.398 28.0335 160.86 28.3056 160.096 28.1296C159.749 28.0185 159.481 27.8096 159.292 27.5031C159.119 27.1881 159.089 26.857 159.2 26.5098L160.42 22.6963C160.515 22.3986 160.538 22.1327 160.49 21.8986C160.446 21.6521 160.374 21.4512 160.273 21.2959C160.176 21.1283 160.061 20.9958 159.929 20.8986C159.8 20.789 159.661 20.7104 159.512 20.6627C159.363 20.6151 159.204 20.5985 159.036 20.6129C158.883 20.6189 158.719 20.662 158.543 20.7424C158.371 20.8104 158.195 20.9319 158.016 21.107C157.841 21.2698 157.7 21.4979 157.592 21.7916L156.372 25.6051C156.06 26.3254 155.521 26.5975 154.757 26.4214C154.41 26.3103 154.142 26.1015 153.953 25.795C153.78 25.48 153.75 25.1489 153.861 24.8016L155.081 20.9881C155.176 20.6905 155.2 20.4246 155.151 20.1905C155.107 19.9439 155.035 19.743 154.934 19.5878C154.837 19.4201 154.723 19.2877 154.59 19.1905C154.461 19.0808 154.322 19.0022 154.173 18.9546C154.024 18.907 153.865 18.8904 153.697 18.9048C153.544 18.9107 153.38 18.9539 153.204 19.0343C153.032 19.1022 152.856 19.2238 152.677 19.3989C152.502 19.5616 152.361 19.7898 152.253 20.0835L151.033 23.897C150.733 24.6212 150.201 24.8953 149.437 24.7193C149.09 24.6082 148.822 24.3993 148.633 24.0928C148.46 23.7778 148.429 23.4467 148.54 23.0994L149.808 19.1371C150.047 18.4754 150.387 17.9483 150.827 17.5559C151.267 17.1635 151.725 16.8862 152.2 16.724C152.68 16.5493 153.148 16.4531 153.605 16.4352C154.074 16.4213 154.52 16.4818 154.941 16.6167Z" fill="#9ABBA1"/>
<path d="M181.501 38.0767L183.967 34.0671C184.137 33.7898 184.082 33.5569 183.8 33.3685L177.977 29.7878C177.759 29.6693 177.518 29.651 177.254 29.733C176.996 29.8039 176.757 29.932 176.536 30.1171C176.333 30.298 176.16 30.505 176.017 30.7379C175.881 30.9597 175.774 31.2076 175.697 31.4814C175.639 31.751 175.632 32.0222 175.679 32.2952C175.731 32.5571 175.863 32.7528 176.074 32.8824L180.333 35.5014C180.644 35.6924 180.836 35.9636 180.911 36.315C181.003 36.6621 180.954 36.991 180.763 37.3016C180.572 37.6121 180.3 37.8046 179.949 37.8789C179.602 37.9712 179.273 37.9218 178.962 37.7308L174.77 35.1527C174 34.6642 173.49 34.0523 173.239 33.3171C173.006 32.5776 172.942 31.8735 173.047 31.2047C173.171 30.5316 173.41 29.9067 173.765 29.3299C174.106 28.7753 174.551 28.3 175.1 27.904C175.656 27.497 176.313 27.2361 177.071 27.1216C177.837 26.9959 178.717 27.2165 179.714 27.7835L186.702 32.0803C187.012 32.2713 187.214 32.5403 187.306 32.8875C187.405 33.2235 187.365 33.5503 187.185 33.8676L183.747 39.4578C183.556 39.7684 183.279 39.9574 182.917 40.0249C182.572 40.0882 182.245 40.0243 181.934 39.8334C181.303 39.3687 181.158 38.7831 181.501 38.0767Z" fill="#9ABBA1"/>
<path d="M203.879 51.4159C204.111 51.1875 204.113 50.9481 203.884 50.6978L199.087 45.8276C198.904 45.6605 198.675 45.5851 198.398 45.6014C198.131 45.6086 197.868 45.6757 197.61 45.8026C197.369 45.9297 197.152 46.0892 196.957 46.281C196.771 46.4638 196.609 46.6789 196.469 46.9265C196.347 47.1741 196.276 47.436 196.256 47.7121C196.244 47.979 196.326 48.2006 196.499 48.3769L200.008 51.9391C200.264 52.1988 200.386 52.5082 200.374 52.8672C200.38 53.2263 200.254 53.5338 199.994 53.7896C199.734 54.0455 199.425 54.1674 199.066 54.1555C198.707 54.162 198.399 54.0354 198.143 53.7756L194.689 50.2691C194.059 49.6106 193.71 48.8944 193.642 48.1204C193.593 47.3466 193.699 46.6477 193.962 46.0236C194.243 45.3996 194.625 44.85 195.107 44.3749C195.571 43.9181 196.117 43.5631 196.745 43.3101C197.382 43.0479 198.082 42.9519 198.846 43.0221C199.619 43.0832 200.422 43.5082 201.253 44.2972L207.01 50.1414C207.266 50.4012 207.397 50.7106 207.403 51.0697C207.419 51.4197 207.302 51.7273 207.051 51.9924L202.654 56.3234C201.912 57.0544 201.111 57.6422 200.251 58.0868C199.484 58.4769 198.691 58.6551 197.872 58.6213C197.052 58.6058 196.304 58.2917 195.628 57.6789L190.885 52.8644C190.648 52.6048 190.531 52.3 190.533 51.9502C190.536 51.6187 190.658 51.325 190.899 51.069C191.159 50.8132 191.464 50.6774 191.814 50.6616C192.173 50.6551 192.485 50.7772 192.75 51.0278L197.026 55.3693C197.392 55.7035 197.814 55.8632 198.293 55.8484C198.772 55.8336 199.211 55.6942 199.608 55.4302C200.006 55.1662 200.47 54.7738 200.998 54.253L203.879 51.4159Z" fill="#9ABBA1"/>
<path d="M219.494 67.2371C219.663 67.546 219.704 67.87 219.617 68.209C219.542 68.5415 219.357 68.803 219.061 68.9938L213.252 72.446C212.54 72.7779 211.957 72.6247 211.502 71.9864C211.316 71.6729 211.253 71.3388 211.315 70.984C211.395 70.6338 211.591 70.3655 211.905 70.1793L217.714 66.7271C218.034 66.5521 218.362 66.5166 218.696 66.6208C219.042 66.7183 219.308 66.9237 219.494 67.2371ZM220.839 64.5297C221.152 64.3434 221.501 64.3181 221.884 64.4537C222.268 64.5894 222.573 64.8475 222.799 65.228C223.025 65.6086 223.106 65.9998 223.042 66.4014C222.977 66.8031 222.788 67.0971 222.475 67.2833C222.15 67.4762 221.796 67.5049 221.413 67.3692C221.029 67.2336 220.725 66.9755 220.498 66.5949C220.272 66.2143 220.191 65.8232 220.256 65.4215C220.32 65.0199 220.514 64.7226 220.839 64.5297Z" fill="#9ABBA1"/>
<path d="M221.419 93.5567C221.124 92.4488 221.128 91.5427 221.431 90.8384C221.747 90.1303 222.166 89.5609 222.689 89.1303C223.224 88.6959 223.803 88.3842 224.426 88.1952C225.074 87.9987 225.733 87.9281 226.402 87.9834C227.089 88.0475 227.753 88.288 228.397 88.7051C229.057 89.1309 229.525 89.778 229.802 90.6464L231.957 97.7488C232.062 98.0976 232.027 98.4283 231.849 98.7406C231.688 99.0616 231.433 99.275 231.084 99.3809C230.735 99.4867 230.398 99.4528 230.074 99.2792C229.765 99.1142 229.558 98.8573 229.452 98.5084L227.275 91.3313C227.203 91.0946 227.041 90.9192 226.789 90.8053C226.549 90.6875 226.285 90.6247 225.997 90.6168C225.725 90.6177 225.465 90.6559 225.215 90.7315C224.954 90.8108 224.703 90.9276 224.464 91.0817C224.242 91.2445 224.057 91.4434 223.911 91.6783C223.777 91.9094 223.739 92.1453 223.799 92.3858L225.976 99.5629C226.081 99.9118 226.046 100.242 225.868 100.555C225.707 100.876 225.452 101.089 225.103 101.195C224.754 101.301 224.424 101.265 224.111 101.088C223.79 100.926 223.577 100.671 223.471 100.323L221.419 93.5567Z" fill="#9ABBA1"/>
<path d="M237.576 117.706C238.315 117.667 238.844 117.819 239.162 118.162C239.481 118.506 239.653 118.928 239.68 119.427C239.707 119.946 239.581 120.394 239.3 120.769C239.021 121.164 238.511 121.381 237.773 121.42C237.054 121.458 236.524 121.296 236.185 120.934C235.846 120.591 235.663 120.16 235.636 119.641C235.609 119.142 235.746 118.704 236.047 118.327C236.347 117.951 236.857 117.744 237.576 117.706Z" fill="#9ABBA1"/>
<path d="M228.739 149.638C228.777 149.093 228.994 148.638 229.392 148.274C229.77 147.909 230.232 147.735 230.779 147.754L231.334 147.793C232.132 147.868 232.875 147.871 233.566 147.801C234.238 147.711 234.854 147.441 235.414 146.99C235.974 146.54 236.299 145.946 236.389 145.208L236.962 136.996L231.613 136.623C231.068 136.585 230.633 136.359 230.309 135.945C229.968 135.51 229.816 135.02 229.854 134.474C230.033 133.312 230.711 132.713 231.888 132.677L238.668 133.15C240.227 133.258 241.683 133.575 243.037 134.1C244.237 134.575 245.235 135.291 246.03 136.247C246.806 137.182 247.186 138.334 247.169 139.704L246.436 150.225C246.38 150.75 246.164 151.185 245.787 151.531C245.392 151.856 244.931 152.01 244.404 151.992C243.858 151.954 243.403 151.747 243.038 151.369C242.674 150.971 242.501 150.499 242.52 149.952L243.184 140.425C243.196 139.681 242.956 139.048 242.464 138.524C242.008 138.042 241.474 137.702 240.862 137.502L240.236 146.475C240.063 147.833 239.527 148.931 238.627 149.769C237.708 150.586 236.622 151.147 235.367 151.451C234.114 151.736 232.795 151.84 231.41 151.763L230.504 151.699C229.979 151.643 229.555 151.418 229.23 151.023C228.885 150.627 228.722 150.166 228.739 149.638Z" fill="#9ABBA1"/>
<path d="M222.203 177.582L225.667 166.817C225.853 166.303 226.186 165.938 226.665 165.723C227.151 165.489 227.654 165.456 228.174 165.624C229.26 166.075 229.67 166.874 229.404 168.02L226.245 177.836C226.055 178.555 226.136 179.227 226.489 179.854C226.841 180.48 227.307 181.009 227.886 181.442C228.452 181.85 229.07 182.161 229.739 182.377C230.409 182.592 231.102 182.702 231.818 182.707C232.522 182.687 233.2 182.526 233.852 182.223C234.503 181.919 234.961 181.42 235.226 180.726L238.384 170.909C238.57 170.394 238.903 170.029 239.383 169.814C239.868 169.581 240.371 169.548 240.892 169.715C241.388 169.895 241.756 170.219 241.995 170.686C242.222 171.128 242.264 171.603 242.121 172.111L238.658 182.876C238.164 184.154 237.325 185.074 236.139 185.636C234.94 186.174 233.695 186.44 232.404 186.435C231.119 186.411 229.863 186.202 228.636 185.807C227.409 185.412 226.269 184.841 225.218 184.092C224.166 183.343 223.319 182.404 222.677 181.274C222.017 180.138 221.859 178.908 222.203 177.582ZM234.348 167.671C234.868 167.839 235.245 168.165 235.479 168.651C235.737 169.124 235.783 169.621 235.615 170.141L232.905 178.564C232.738 179.084 232.418 179.474 231.945 179.732C231.459 179.965 230.956 179.998 230.435 179.831C229.915 179.663 229.526 179.343 229.267 178.87C229.034 178.385 229.001 177.882 229.168 177.361L231.878 168.939C232.046 168.418 232.372 168.041 232.858 167.807C233.33 167.549 233.827 167.504 234.348 167.671Z" fill="#9ABBA1"/>
<path d="M207.677 202.431C208.21 201.567 208.833 200.781 209.545 200.073C210.268 199.348 211.065 198.727 211.936 198.208C212.79 197.68 213.72 197.325 214.728 197.143C215.745 196.945 216.718 197.098 217.646 197.602L226.646 203.157C227.582 203.872 227.783 204.754 227.251 205.803C226.964 206.268 226.563 206.583 226.048 206.747C225.527 206.885 225.034 206.81 224.569 206.523L216.342 201.445C215.806 201.16 215.259 201.098 214.701 201.258C214.137 201.392 213.616 201.621 213.14 201.947C212.673 202.256 212.242 202.621 211.845 203.041C211.458 203.445 211.115 203.888 210.818 204.37C210.52 204.852 210.273 205.365 210.075 205.908C209.887 206.435 209.755 206.984 209.677 207.556C209.61 208.111 209.638 208.68 209.761 209.261C209.878 209.815 210.184 210.268 210.679 210.619L218.906 215.697C219.852 216.396 220.058 217.269 219.526 218.318C219.239 218.783 218.838 219.098 218.323 219.262C217.802 219.4 217.309 219.325 216.844 219.038L207.844 213.482C206.977 212.879 206.399 212.086 206.11 211.104C205.821 210.122 205.721 209.131 205.811 208.131C205.884 207.12 206.077 206.137 206.391 205.183C206.715 204.213 207.143 203.295 207.677 202.431Z" fill="#9ABBA1"/>
<path d="M190.575 240.945C191.173 241.96 191.028 242.853 190.141 243.624C189.7 243.948 189.21 244.089 188.671 244.048C188.137 243.979 187.708 243.724 187.385 243.283L179.176 232.083C178.868 231.63 178.768 231.147 178.875 230.632C178.971 230.102 179.239 229.675 179.68 229.352L189.581 222.095C189.676 222.026 189.776 221.965 189.882 221.911L190.024 221.807C191.15 221.031 192.24 220.619 193.295 220.572C194.351 220.525 195.261 220.693 196.026 221.077C196.78 221.444 197.382 221.935 197.833 222.55C198.294 223.18 198.593 223.917 198.728 224.763C198.868 225.581 198.748 226.492 198.37 227.495C198.007 228.487 197.286 229.403 196.207 230.243L192.048 233.291C192.751 233.987 193.438 234.379 194.109 234.468C194.764 234.569 195.383 234.406 195.966 233.979L201.07 230.238C201.523 229.931 202.006 229.83 202.521 229.938C203.051 230.033 203.478 230.302 203.801 230.743C204.097 231.18 204.205 231.658 204.125 232.176C204.05 232.668 203.805 233.077 203.391 233.405L197.862 237.457C196.707 238.327 195.317 238.644 193.691 238.407C192.064 238.171 190.681 237.489 189.541 236.363C188.218 235.153 187.494 234.462 187.367 234.289C187.043 233.847 186.922 233.368 187.002 232.849C187.086 232.303 187.348 231.868 187.789 231.545L194.028 226.973C194.315 226.738 194.513 226.496 194.622 226.247C194.734 225.971 194.786 225.727 194.776 225.516C194.755 225.289 194.687 225.097 194.572 224.94C194.456 224.782 194.299 224.667 194.101 224.595C193.891 224.506 193.643 224.482 193.357 224.522C193.076 224.534 192.78 224.643 192.469 224.846L184.175 230.925C183.777 231.241 183.722 231.596 184.011 231.99L190.575 240.945Z" fill="#9ABBA1"/>
<path d="M165.717 256.319C164.731 256.564 163.726 256.693 162.703 256.706C161.699 256.714 160.707 256.609 159.726 256.39C158.741 256.151 157.825 255.745 156.978 255.171C156.131 254.597 155.552 253.805 155.24 252.796L152.689 242.532C152.557 242.001 152.638 241.518 152.932 241.083C153.241 240.624 153.66 240.328 154.191 240.196C155.352 240.008 156.121 240.471 156.498 241.585L158.831 250.967C159.015 251.545 159.356 251.984 159.853 252.283C160.364 252.558 160.894 252.748 161.443 252.853C162.012 252.953 162.575 252.994 163.134 252.976C163.712 252.953 164.276 252.874 164.826 252.737C165.376 252.6 165.902 252.409 166.404 252.163C166.925 251.913 167.404 251.613 167.841 251.263C168.296 250.908 168.675 250.492 168.979 250.014C169.297 249.512 169.402 248.963 169.294 248.366L166.961 238.983C166.829 238.453 166.91 237.969 167.205 237.534C167.513 237.075 167.933 236.779 168.463 236.648C169.624 236.46 170.403 236.92 170.799 238.029L173.351 248.293C173.549 249.33 173.398 250.304 172.9 251.212C172.42 252.117 171.801 252.905 171.042 253.576C170.279 254.229 169.442 254.789 168.532 255.257C167.641 255.72 166.702 256.074 165.717 256.319Z" fill="#9ABBA1"/>
<path d="M131.91 241.69C132.904 241.751 133.779 242.101 134.534 242.739C135.289 243.377 135.882 244.126 136.315 244.985C136.767 245.845 137.091 246.748 137.285 247.695C137.479 248.641 137.556 249.602 137.514 250.578C137.46 251.866 137.201 253.126 136.738 254.357C136.295 255.57 135.595 256.635 134.637 257.552C133.699 258.47 132.545 258.939 131.176 258.959L120.961 258.525C119.597 258.408 118.477 257.852 117.601 256.857C116.724 255.862 116.117 254.732 115.78 253.466C115.463 252.202 115.331 250.926 115.386 249.638C115.441 248.35 115.689 247.099 116.132 245.887C116.575 244.654 117.266 243.579 118.204 242.661C119.163 241.724 120.326 241.256 121.695 241.255L131.91 241.69ZM130.348 254.995C131.091 254.987 131.717 254.74 132.226 254.253C132.756 253.748 133.143 253.158 133.387 252.485C133.63 251.811 133.767 251.123 133.797 250.42C133.827 249.718 133.739 249.03 133.533 248.356C133.347 247.664 133.022 247.044 132.556 246.497C132.091 245.949 131.488 245.64 130.748 245.569L122.435 245.216C121.692 245.224 121.065 245.481 120.555 245.987C120.045 246.493 119.658 247.082 119.395 247.755C119.152 248.41 119.016 249.088 118.986 249.791C118.956 250.493 119.034 251.19 119.22 251.883C119.405 252.575 119.731 253.194 120.196 253.742C120.682 254.271 121.295 254.571 122.035 254.641L130.348 254.995Z" fill="#9ABBA1"/>
<path d="M89.0368 253.094C88.0619 252.809 87.1292 252.415 86.2388 251.91C85.3671 251.412 84.5631 250.821 83.8266 250.138C83.0957 249.436 82.5089 248.623 82.0663 247.701C81.6237 246.778 81.5222 245.802 81.7616 244.773L82.2299 243.17C82.3832 242.645 82.6966 242.269 83.1702 242.041C83.6679 241.8 84.1793 241.756 84.7042 241.909C85.8017 242.331 86.233 243.119 85.9982 244.271L85.7846 245.002C85.6523 245.594 85.7255 246.145 86.0042 246.653C86.3072 247.149 86.6695 247.58 87.0912 247.947C87.5317 248.32 87.998 248.64 88.49 248.905C89.0009 249.177 89.5281 249.392 90.0718 249.551C90.6155 249.709 91.1662 249.809 91.724 249.85C92.3006 249.896 92.8654 249.878 93.4186 249.796C93.9905 249.719 94.5281 249.55 95.0313 249.29C95.5587 249.017 95.9261 248.595 96.1334 248.025L98.8442 238.745C98.9975 238.22 99.3109 237.843 99.7845 237.616C100.282 237.374 100.794 237.33 101.318 237.484C102.416 237.906 102.857 238.696 102.641 239.854L99.6751 250.006C99.3232 251.002 98.7029 251.767 97.8144 252.301C96.9447 252.84 96.0129 253.209 95.0191 253.407C94.0307 253.586 93.0256 253.649 92.0038 253.594C91.0007 253.546 90.0117 253.379 89.0368 253.094Z" fill="#9ABBA1"/>
<path d="M73.6551 236.386C73.3527 237.061 72.976 237.462 72.5248 237.589C72.0737 237.716 71.6199 237.677 71.1636 237.473C70.6889 237.26 70.3486 236.943 70.1426 236.523C69.9183 236.093 69.9574 235.541 70.2597 234.866C70.5539 234.209 70.9397 233.812 71.4173 233.675C71.8766 233.53 72.3436 233.564 72.8182 233.776C73.2746 233.98 73.6017 234.302 73.7995 234.741C73.9974 235.18 73.9492 235.729 73.6551 236.386Z" fill="#9ABBA1"/>
<path d="M51.4896 214.253L48.5942 217.965C48.3939 218.221 48.4233 218.459 48.6822 218.677L54.0718 222.882C54.2749 223.024 54.5124 223.069 54.7843 223.017C55.0481 222.975 55.3001 222.874 55.5401 222.715C55.7619 222.558 55.9569 222.371 56.1251 222.156C56.2853 221.95 56.4187 221.716 56.5253 221.452C56.6136 221.191 56.65 220.922 56.6344 220.646C56.6108 220.379 56.5015 220.17 56.3065 220.018L52.3643 216.943C52.0769 216.718 51.9157 216.427 51.8808 216.07C51.8277 215.715 51.9133 215.393 52.1375 215.106C52.3618 214.818 52.6527 214.657 53.0102 214.622C53.3654 214.569 53.6867 214.655 53.9742 214.879L57.8548 217.907C58.5654 218.478 59.0046 219.142 59.1725 219.901C59.3221 220.662 59.3074 221.368 59.1282 222.021C58.9308 222.677 58.6239 223.271 58.2074 223.805C57.8069 224.318 57.3118 224.741 56.722 225.074C56.1242 225.417 55.4422 225.603 54.6759 225.633C53.9015 225.673 53.0506 225.356 52.1232 224.682L45.6556 219.636C45.3681 219.411 45.1978 219.122 45.1447 218.766C45.0835 218.421 45.16 218.101 45.374 217.806L49.4107 212.632C49.6349 212.344 49.931 212.187 50.2987 212.16C50.6482 212.136 50.9667 212.235 51.2541 212.46C51.8301 212.992 51.9085 213.589 51.4896 214.253Z" fill="#9ABBA1"/>
<path d="M31.0563 204.454C30.6377 203.922 30.2885 203.352 30.0087 202.744C29.7209 202.125 29.5147 201.484 29.3899 200.82C29.2549 200.164 29.2461 199.5 29.3634 198.828C29.4727 198.146 29.7916 197.572 30.32 197.106L33.5896 194.534C34.2519 194.112 34.8502 194.188 35.3844 194.762C35.6099 195.049 35.715 195.372 35.6999 195.732C35.6665 196.089 35.5065 196.381 35.2199 196.606L32.4262 198.804C32.1251 199.074 31.9607 199.402 31.9332 199.788C31.8873 200.172 31.9117 200.551 32.0063 200.924C32.0928 201.286 32.2221 201.64 32.3942 201.985C32.5582 202.32 32.757 202.636 32.9905 202.933C33.2239 203.23 33.4881 203.502 33.783 203.751C34.0698 203.989 34.3833 204.198 34.7235 204.378C35.0556 204.547 35.4177 204.66 35.8097 204.716C36.1835 204.77 36.537 204.682 36.8703 204.453L39.6641 202.255C40.3183 201.823 40.9126 201.894 41.4468 202.468C41.6722 202.754 41.7774 203.078 41.7623 203.437C41.7288 203.795 41.5689 204.087 41.2823 204.312L38.0127 206.884C37.436 207.288 36.8071 207.468 36.1263 207.424C35.4454 207.38 34.8021 207.215 34.1963 206.93C33.5804 206.652 33.0098 206.306 32.4844 205.891C31.951 205.465 31.475 204.987 31.0563 204.454Z" fill="#9ABBA1"/>
<path d="M21.7832 181.331C21.6501 181.006 21.6453 180.679 21.7687 180.352C21.8802 180.03 22.0934 179.79 22.4084 179.634L28.5652 176.848C29.3092 176.597 29.8718 176.814 30.2532 177.499C30.4035 177.831 30.4283 178.17 30.3275 178.516C30.2095 178.855 29.9844 179.1 29.6522 179.25L23.4954 182.036C23.1579 182.174 22.8287 182.173 22.5078 182.033C22.175 181.897 21.9335 181.664 21.7832 181.331ZM20.1463 183.873C19.8141 184.023 19.465 184.01 19.0989 183.832C18.7328 183.655 18.4585 183.365 18.276 182.961C18.0935 182.558 18.0565 182.16 18.1649 181.768C18.2733 181.376 18.4936 181.105 18.8258 180.955C19.1698 180.799 19.5248 180.81 19.8909 180.987C20.257 181.165 20.5313 181.455 20.7138 181.858C20.8963 182.262 20.9334 182.659 20.825 183.051C20.7165 183.443 20.4903 183.717 20.1463 183.873Z" fill="#9ABBA1"/>
<path d="M13.9236 157.379C13.8405 156.931 13.8367 156.482 13.912 156.031C13.985 155.567 14.1319 155.109 14.3528 154.658C14.4049 154.582 14.4559 154.5 14.5057 154.411C14.4298 154.359 14.3527 154.3 14.2745 154.235C13.9064 153.893 13.6065 153.525 13.3745 153.131C13.1402 152.724 12.9827 152.303 12.902 151.868C12.819 151.42 12.8151 150.97 12.8904 150.519C12.9634 150.055 13.1179 149.603 13.3539 149.162C13.5748 148.711 13.9077 148.291 14.3524 147.904C14.7947 147.505 15.3616 147.241 16.0529 147.112L20.1434 146.354C20.9258 146.289 21.4202 146.634 21.6266 147.39C21.6931 147.749 21.636 148.084 21.4554 148.395C21.2596 148.697 20.9824 148.88 20.624 148.947L16.6871 149.676C16.3799 149.733 16.1345 149.838 15.951 149.992C15.7547 150.147 15.612 150.306 15.5229 150.468C15.421 150.633 15.3586 150.797 15.3359 150.96C15.3003 151.125 15.2968 151.285 15.3253 151.439C15.3538 151.592 15.4143 151.74 15.5067 151.882C15.5841 152.013 15.6998 152.137 15.8539 152.254C15.9952 152.374 16.1854 152.471 16.4244 152.546C16.6506 152.623 16.9185 152.64 17.2282 152.595L21.165 151.866C21.9474 151.8 22.4418 152.146 22.6482 152.902C22.7147 153.26 22.6576 153.595 22.477 153.907C22.2812 154.208 22.004 154.392 21.6456 154.458L17.7087 155.188C17.4014 155.245 17.1561 155.35 16.9726 155.503C16.7763 155.659 16.6336 155.818 16.5445 155.98C16.4425 156.144 16.3802 156.308 16.3575 156.471C16.3219 156.637 16.3184 156.796 16.3469 156.95C16.3754 157.104 16.4358 157.251 16.5283 157.393C16.6057 157.525 16.7214 157.649 16.8755 157.766C17.0168 157.885 17.207 157.983 17.446 158.057C17.6722 158.135 17.9401 158.151 18.2498 158.107L22.1866 157.377C22.9666 157.299 23.4599 157.638 23.6663 158.394C23.7327 158.753 23.6756 159.088 23.495 159.399C23.2992 159.7 23.0221 159.884 22.6636 159.951L18.5731 160.709C17.877 160.811 17.252 160.762 16.6981 160.56C16.1443 160.358 15.6833 160.086 15.3153 159.744C14.9344 159.404 14.628 159.037 14.3961 158.643C14.1618 158.236 14.0043 157.815 13.9236 157.379Z" fill="#9ABBA1"/>
<path d="M20.8867 130.856C20.7808 131.997 20.4638 132.846 19.9357 133.402C19.3945 133.957 18.8044 134.347 18.1653 134.57C17.5131 134.793 16.8621 134.885 16.2122 134.848C15.5362 134.808 14.8935 134.647 14.284 134.363C13.6623 134.066 13.1215 133.61 12.6618 132.997C12.1898 132.369 11.9739 131.6 12.0141 130.689L12.4472 123.28C12.4684 122.916 12.6098 122.618 12.8712 122.385C13.1204 122.139 13.4139 122.026 13.7519 122.045C14.1029 122.066 14.3942 122.213 14.626 122.488C14.8456 122.748 14.9447 123.061 14.9234 123.425L14.4972 130.717C14.4804 131.003 14.5631 131.262 14.7452 131.494C14.928 131.714 15.1723 131.885 15.4782 132.007C15.7849 132.116 16.0877 132.179 16.3867 132.197C16.7116 132.216 17.0328 132.189 17.35 132.116C17.6681 132.031 17.9307 131.889 18.1378 131.693C18.3327 131.482 18.445 131.235 18.4747 130.949L18.901 123.657C18.9223 123.293 19.0571 122.995 19.3055 122.761C19.5547 122.515 19.8418 122.401 20.1667 122.42C20.5047 122.44 20.7831 122.587 21.0018 122.86C21.2214 123.121 21.3205 123.433 21.2992 123.797L20.8867 130.856ZM16.8969 122.464C17.1439 122.478 17.3519 122.601 17.521 122.833C17.6785 123.038 17.7486 123.29 17.7311 123.589L17.3584 129.965C17.3409 130.264 17.2416 130.512 17.0605 130.71C16.8664 130.908 16.6458 130.999 16.3988 130.985C16.1649 130.971 15.963 130.855 15.7931 130.636C15.6363 130.418 15.5666 130.16 15.5841 129.861L15.9568 123.485C15.9743 123.186 16.0801 122.938 16.2742 122.741C16.4554 122.543 16.6629 122.45 16.8969 122.464Z" fill="#9ABBA1"/>
<path d="M14.1218 101.745C13.4148 101.526 12.9712 101.201 12.7911 100.768C12.6109 100.336 12.5947 99.8804 12.7424 99.4027C12.8961 98.906 13.1695 98.53 13.5625 98.2747C13.9614 98.0004 14.5143 97.9725 15.2213 98.1913C15.9091 98.4041 16.3497 98.7393 16.5431 99.1969C16.7424 99.6354 16.7652 100.103 16.6115 100.6C16.4637 101.077 16.1838 101.441 15.7717 101.69C15.3596 101.94 14.8096 101.958 14.1218 101.745Z" fill="#9ABBA1"/>
</svg>
